<?xml version="1.0" encoding="UTF-8" standalone="no"?>
<!-- Created with Inkscape (http://www.inkscape.org/) -->

<svg
   version="1.1"
   id="svg693"
   xml:space="preserve"
   width="32"
   height="32"
   viewBox="0 0 32 32"
   xmlns="http://www.w3.org/2000/svg"
   xmlns:svg="http://www.w3.org/2000/svg"><defs
     id="defs697"><clipPath
       clipPathUnits="userSpaceOnUse"
       id="clipPath719"><path
         d="M 0,24 H 24 V 0 H 0 Z"
         id="path717" /></clipPath></defs><g
     id="g699"
     transform="matrix(1.3333333,0,0,-1.3333333,0,32)"><g
       id="g701"
       transform="translate(7,11)"><path
         d="M 0,0 H 5"
         style="fill:none;stroke:#000000;stroke-width:2;stroke-linecap:butt;stroke-linejoin:miter;stroke-miterlimit:10;stroke-dasharray:none;stroke-opacity:1"
         id="path703" /></g><g
       id="g705"
       transform="translate(7,15)"><path
         d="M 0,0 H 10"
         style="fill:none;stroke:#000000;stroke-width:2;stroke-linecap:butt;stroke-linejoin:miter;stroke-miterlimit:10;stroke-dasharray:none;stroke-opacity:1"
         id="path707" /></g><g
       id="g709"
       transform="translate(7,19)"><path
         d="M 0,0 H 10"
         style="fill:none;stroke:#000000;stroke-width:2;stroke-linecap:butt;stroke-linejoin:miter;stroke-miterlimit:10;stroke-dasharray:none;stroke-opacity:1"
         id="path711" /></g><g
       id="g713"><g
         id="g715"
         clip-path="url(#clipPath719)"><g
           id="g721"
           transform="translate(15,8)"><path
             d="M 0,0 C 0,-1.657 1.343,-3 3,-3 4.657,-3 6,-1.657 6,0 6,1.657 4.657,3 3,3 1.343,3 0,1.657 0,0 Z"
             style="fill:none;stroke:#000000;stroke-width:2;stroke-linecap:butt;stroke-linejoin:miter;stroke-miterlimit:10;stroke-dasharray:none;stroke-opacity:1"
             id="path723" /></g><g
           id="g725"
           transform="translate(16,5)"><path
             d="m 0,0 v -5 l 2,2 2,-2 v 5"
             style="fill:#000000;fill-opacity:1;fill-rule:nonzero;stroke:none"
             id="path727" /></g><g
           id="g729"
           transform="translate(14,3)"><path
             d="m 0,0 h -10 v 18 c 0,1.104 0.896,2 2,2 H 4 c 1.104,0 2,-0.896 2,-2 V 7"
             style="fill:none;stroke:#000000;stroke-width:2;stroke-linecap:butt;stroke-linejoin:miter;stroke-miterlimit:10;stroke-dasharray:none;stroke-opacity:1"
             id="path731" /></g></g></g></g></svg>
