<svg width="75" height="75" viewBox="0 0 75 75" fill="none" xmlns="http://www.w3.org/2000/svg">
<path d="M3.125 39.0625V54.6875C3.125 55.5163 3.45424 56.3112 4.04029 56.8972C4.62634 57.4833 5.4212 57.8125 6.25 57.8125H9.375C9.375 60.2989 10.3627 62.6835 12.1209 64.4416C13.879 66.1998 16.2636 67.1875 18.75 67.1875C21.2364 67.1875 23.621 66.1998 25.3791 64.4416C27.1373 62.6835 28.125 60.2989 28.125 57.8125H46.875C46.875 60.2989 47.8627 62.6835 49.6209 64.4416C51.379 66.1998 53.7636 67.1875 56.25 67.1875C58.7364 67.1875 61.121 66.1998 62.8791 64.4416C64.6373 62.6835 65.625 60.2989 65.625 57.8125H68.75C69.5788 57.8125 70.3737 57.4833 70.9597 56.8972C71.5458 56.3112 71.875 55.5163 71.875 54.6875V17.1875C71.875 14.7011 70.8873 12.3165 69.1291 10.5584C67.371 8.80022 64.9864 7.8125 62.5 7.8125H34.375C31.8886 7.8125 29.504 8.80022 27.7459 10.5584C25.9877 12.3165 25 14.7011 25 17.1875V23.4375H18.75C17.2946 23.4375 15.8591 23.7764 14.5574 24.4272C13.2556 25.0781 12.1233 26.0232 11.25 27.1875L3.75 37.1875C3.6586 37.3233 3.58508 37.4704 3.53125 37.625L3.34375 37.9687C3.20583 38.3173 3.13173 38.6877 3.125 39.0625ZM53.125 57.8125C53.125 57.1944 53.3083 56.5902 53.6517 56.0763C53.995 55.5624 54.4831 55.1619 55.0541 54.9254C55.6251 54.6889 56.2535 54.627 56.8597 54.7475C57.4659 54.8681 58.0227 55.1657 58.4597 55.6028C58.8968 56.0398 59.1944 56.5966 59.315 57.2028C59.4355 57.809 59.3736 58.4374 59.1371 59.0084C58.9006 59.5794 58.5001 60.0675 57.9862 60.4108C57.4723 60.7542 56.8681 60.9375 56.25 60.9375C55.4212 60.9375 54.6263 60.6083 54.0403 60.0222C53.4542 59.4362 53.125 58.6413 53.125 57.8125ZM31.25 17.1875C31.25 16.3587 31.5792 15.5638 32.1653 14.9778C32.7513 14.3917 33.5462 14.0625 34.375 14.0625H62.5C63.3288 14.0625 64.1237 14.3917 64.7097 14.9778C65.2958 15.5638 65.625 16.3587 65.625 17.1875V51.5625H63.1875C62.3088 50.5958 61.2378 49.8233 60.0431 49.2948C58.8484 48.7662 57.5564 48.4932 56.25 48.4932C54.9436 48.4932 53.6516 48.7662 52.4569 49.2948C51.2622 49.8233 50.1912 50.5958 49.3125 51.5625H31.25V17.1875ZM25 35.9375H12.5L16.25 30.9375C16.5411 30.5494 16.9185 30.2344 17.3525 30.0174C17.7864 29.8005 18.2649 29.6875 18.75 29.6875H25V35.9375ZM15.625 57.8125C15.625 57.1944 15.8083 56.5902 16.1517 56.0763C16.495 55.5624 16.9831 55.1619 17.5541 54.9254C18.1251 54.6889 18.7535 54.627 19.3597 54.7475C19.9658 54.8681 20.5227 55.1657 20.9597 55.6028C21.3967 56.0398 21.6944 56.5966 21.815 57.2028C21.9355 57.809 21.8736 58.4374 21.6371 59.0084C21.4006 59.5794 21.0001 60.0675 20.4862 60.4108C19.9723 60.7542 19.3681 60.9375 18.75 60.9375C17.9212 60.9375 17.1263 60.6083 16.5403 60.0222C15.9542 59.4362 15.625 58.6413 15.625 57.8125ZM9.375 42.1875H25V50.875C23.1557 49.2267 20.7348 48.3741 18.2647 48.5029C15.7945 48.6317 13.4754 49.7314 11.8125 51.5625H9.375V42.1875Z" fill="#142130"/>
</svg>
