<svg width="51" height="51" viewBox="0 0 51 51" fill="none" xmlns="http://www.w3.org/2000/svg">
<path d="M12.7431 21.6181C14.5973 21.6181 16.4099 21.0683 17.9516 20.0382C19.4933 19.008 20.6949 17.5438 21.4045 15.8308C22.1141 14.1177 22.2997 12.2327 21.938 10.4142C21.5763 8.59559 20.6834 6.92513 19.3723 5.61401C18.0611 4.30289 16.3907 3.41001 14.5721 3.04827C12.7535 2.68654 10.8685 2.87219 9.15548 3.58176C7.44242 4.29134 5.97825 5.49295 4.94811 7.03466C3.91797 8.57638 3.36814 10.3889 3.36814 12.2431C3.37085 14.7287 4.35944 17.1117 6.11701 18.8693C7.87457 20.6268 10.2576 21.6154 12.7431 21.6181ZM12.7431 9.11814C13.3612 9.11814 13.9654 9.30141 14.4793 9.64479C14.9932 9.98817 15.3937 10.4762 15.6303 11.0472C15.8668 11.6183 15.9287 12.2466 15.8081 12.8528C15.6875 13.459 15.3899 14.0158 14.9528 14.4528C14.5158 14.8899 13.959 15.1875 13.3528 15.3081C12.7466 15.4287 12.1183 15.3668 11.5473 15.1303C10.9762 14.8937 10.4882 14.4932 10.1448 13.9793C9.80142 13.4654 9.61814 12.8612 9.61814 12.2431C9.61869 11.4145 9.94811 10.62 10.534 10.034C11.12 9.44811 11.9145 9.11869 12.7431 9.11814ZM39.2568 29.3818C37.4026 29.3818 35.5901 29.9317 34.0484 30.9618C32.5066 31.9919 31.305 33.4561 30.5955 35.1692C29.8859 36.8822 29.7002 38.7672 30.062 40.5858C30.4237 42.4044 31.3166 44.0748 32.6277 45.3859C33.9388 46.6971 35.6093 47.5899 37.4279 47.9517C39.2464 48.3134 41.1314 48.1278 42.8445 47.4182C44.5575 46.7086 46.0217 45.507 47.0519 43.9653C48.082 42.4236 48.6318 40.611 48.6318 38.7568C48.6291 36.2712 47.6405 33.8883 45.8829 32.1307C44.1254 30.3731 41.7424 29.3845 39.2568 29.3818ZM39.2568 41.8818C38.6388 41.8818 38.0346 41.6985 37.5207 41.3552C37.0068 41.0118 36.6062 40.5237 36.3697 39.9527C36.1332 39.3817 36.0713 38.7534 36.1919 38.1472C36.3125 37.541 36.6101 36.9842 37.0471 36.5471C37.4842 36.1101 38.041 35.8125 38.6472 35.6919C39.2534 35.5713 39.8817 35.6332 40.4527 35.8697C41.0237 36.1062 41.5118 36.5068 41.8552 37.0207C42.1985 37.5346 42.3818 38.1388 42.3818 38.7568C42.3813 39.5854 42.0518 40.38 41.4659 40.9659C40.88 41.5518 40.0855 41.8813 39.2568 41.8818ZM50.0844 1.4156C49.7943 1.12535 49.4498 0.895101 49.0707 0.738009C48.6916 0.580916 48.2853 0.500061 47.8749 0.500061C47.4645 0.500061 47.0582 0.580916 46.6791 0.738009C46.3 0.895101 45.9555 1.12535 45.6654 1.4156L1.91542 45.1656C1.62228 45.4551 1.38928 45.7997 1.22983 46.1796C1.07038 46.5595 0.987631 46.9671 0.986343 47.3791C0.985056 47.7911 1.06526 48.1993 1.22233 48.5802C1.3794 48.961 1.61024 49.3071 1.90157 49.5984C2.19289 49.8897 2.53895 50.1205 2.91983 50.2776C3.30071 50.4346 3.70889 50.5148 4.12088 50.5135C4.53287 50.5122 4.94053 50.4295 5.32041 50.27C5.70029 50.1105 6.04488 49.8775 6.33436 49.5844L50.0844 5.83435C50.3746 5.54426 50.6048 5.19983 50.7619 4.82074C50.919 4.44165 50.9998 4.03532 50.9998 3.62498C50.9998 3.21463 50.919 2.80831 50.7619 2.42922C50.6048 2.05013 50.3746 1.7057 50.0844 1.4156Z" fill="white"/>
</svg>
