<svg width="76" height="75" viewBox="0 0 76 75" fill="none" xmlns="http://www.w3.org/2000/svg">
<path d="M65.5837 53.9062L57.115 39.2812C58.8479 36.0985 59.7507 32.5302 59.74 28.9062C59.74 23.1046 57.4353 17.5406 53.3329 13.4383C49.2306 9.33593 43.6666 7.03125 37.865 7.03125C32.0634 7.03125 26.4994 9.33593 22.397 13.4383C18.2947 17.5406 15.99 23.1046 15.99 28.9062C15.9792 32.5302 16.882 36.0985 18.615 39.2812L10.1462 53.9062C9.87142 54.3822 9.727 54.9223 9.72754 55.4719C9.72808 56.0215 9.87357 56.5612 10.1493 57.0366C10.4251 57.5121 10.8213 57.9064 11.2981 58.1798C11.7749 58.4531 12.3154 58.5959 12.865 58.5938H21.8337L26.3962 66.2812C26.55 66.536 26.7394 66.7675 26.9587 66.9688C27.538 67.5271 28.3104 67.8405 29.115 67.8437H29.5525C30.0243 67.7792 30.475 67.6077 30.8704 67.3423C31.2658 67.0769 31.5953 66.7247 31.8337 66.3125L37.865 55.9375L43.8962 66.4062C44.1382 66.8126 44.4692 67.1587 44.8644 67.4186C45.2595 67.6784 45.7085 67.8451 46.1775 67.9062H46.615C47.4304 67.9111 48.2154 67.5971 48.8025 67.0313C49.0127 66.8415 49.1919 66.6201 49.3337 66.375L53.8962 58.6875H62.865C63.4156 58.6897 63.9571 58.5463 64.4345 58.2719C64.9119 57.9976 65.3084 57.6019 65.5837 57.125C65.8757 56.639 66.03 56.0826 66.03 55.5156C66.03 54.9486 65.8757 54.3923 65.5837 53.9062ZM29.0837 58.6875L26.3025 54.0313C26.0286 53.5693 25.6403 53.1857 25.175 52.9175C24.7098 52.6493 24.1832 52.5055 23.6462 52.5H18.24L22.7087 44.75C25.786 47.7152 29.6644 49.7142 33.865 50.5L29.0837 58.6875ZM37.865 44.5312C34.7746 44.5312 31.7537 43.6149 29.1842 41.898C26.6147 40.1811 24.612 37.7408 23.4294 34.8857C22.2467 32.0306 21.9373 28.8889 22.5402 25.858C23.1431 22.827 24.6312 20.0429 26.8164 17.8577C29.0016 15.6725 31.7857 14.1844 34.8167 13.5815C37.8476 12.9786 40.9893 13.288 43.8444 14.4706C46.6995 15.6533 49.1398 17.6559 50.8567 20.2255C52.5736 22.795 53.49 25.8159 53.49 28.9062C53.49 33.0503 51.8438 37.0245 48.9135 39.9548C45.9833 42.885 42.009 44.5312 37.865 44.5312ZM52.0837 52.5C51.5467 52.5055 51.0202 52.6493 50.5549 52.9175C50.0896 53.1857 49.7013 53.5693 49.4275 54.0313L46.6462 58.6875L41.8962 50.4062C46.0821 49.6044 49.9461 47.6072 53.0212 44.6562L57.49 52.4062L52.0837 52.5Z" fill="white"/>
</svg>
