<svg width="512" height="512" viewBox="0 0 512 512" fill="none" xmlns="http://www.w3.org/2000/svg">
<path d="M36.6933 70.1867L104.32 2.56L237.867 136.32L165.12 209.067C194.347 274.347 239.573 319.787 302.72 347.093L375.467 274.347L509.44 407.68L441.813 475.307C418.133 498.987 386.347 512 352 512C197.333 512 -5.58726e-05 314.667 -5.58726e-05 160C-5.58726e-05 125.653 13.0133 93.8667 36.6933 70.1867ZM352 469.333C374.827 469.333 396.16 460.8 411.52 445.227L449.067 407.68L375.68 334.293L313.173 396.8L300.16 391.893C215.68 359.68 154.88 299.093 119.893 211.84L114.56 198.827L177.067 136.107L103.68 62.72L66.1333 100.267C50.56 115.84 42.0266 136.96 42.0266 159.787C42.0266 292.693 218.453 469.12 351.36 469.12L352 469.333Z" fill="black"/>
</svg>
